<?xml version="1.0" standalone="no"?>
<!DOCTYPE svg PUBLIC "-//W3C//DTD SVG 1.1//EN" "http://www.w3.org/Graphics/SVG/1.1/DTD/svg11.dtd">
<svg xmlns="http://www.w3.org/2000/svg">
<metadata>Generated by Fontastic.me</metadata>
<defs>
<font id="fleet-icons" horiz-adv-x="512">
<font-face font-family="fleet-icons" units-per-em="512" ascent="480" descent="-32"/>
<missing-glyph horiz-adv-x="512" />

<glyph glyph-name="a" unicode="&#97;" d="M237 505c-55-7-103-38-129-84-10-18-17-38-21-61-2-11-2-40-1-51 5-29 18-59 54-117 8-12 24-38 35-57 19-32 42-69 72-118l11-17 8 0 7 13c4 7 17 30 30 52 34 58 38 65 44 73 4 4 7 9 8 11 2 5 15 25 28 46 28 45 38 63 46 84 7 18 9 29 9 52 1 19 0 22-6 41-9 28-22 53-36 71-28 35-69 57-115 62-11 2-34 2-44 0z m92-179c24-61 45-112 45-113l2-3-51 0-10 25-9 26-91 0-1-3c-1-2-5-13-9-26l-9-22-24 0c-20 0-25 0-24 1 0 0 19 51 43 112 24 62 44 113 45 113 0 1 6 1 25 1l24 0z m-70 54c-2-5-29-79-29-80 0 0 13 0 30 0 29 0 31 0 30 1 0 2-30 81-30 81 0 0-1-1-1-2z"/>
<glyph glyph-name="b" unicode="&#98;" d="M237 505c-55-7-103-38-129-84-10-18-17-38-21-61-2-11-2-40-1-51 5-29 18-59 54-117 8-12 24-38 35-57 19-32 42-69 72-118l11-17 8 0 7 13c4 7 17 30 30 52 34 58 38 65 44 73 4 4 7 9 8 11 2 5 15 25 28 46 28 45 38 63 46 84 7 18 9 29 9 52 1 19 0 22-6 41-9 28-22 53-36 71-28 35-69 57-115 62-11 2-34 2-44 0z m67-69c23-3 38-12 49-30 4-7 6-14 6-24 1-12-1-20-7-30-3-6-13-16-19-19l-4-3 2 0c6-2 15-7 20-11 24-20 26-59 4-86-7-10-18-17-32-20-10-3-23-3-86-3l-57 0 0 113c0 62 0 114 0 114 1 1 117 0 124-1z m-78-63l0-26 29 0c17 0 32 0 35 1 10 1 18 6 22 14 2 3 2 4 2 11 0 6 0 8-1 10-3 7-8 11-16 14-3 1-7 1-37 1l-34 1z m0-95l0-30 36 1c29 0 36 0 40 1 14 4 22 15 21 31-1 10-6 18-15 22-8 4-17 5-54 5l-28 0z"/>
<glyph glyph-name="c" unicode="&#99;" d="M237 505c-55-7-103-38-129-84-10-18-17-38-21-61-2-11-2-40-1-51 5-29 18-59 54-117 8-12 24-38 35-57 19-32 42-69 72-118l11-17 8 0 7 13c4 7 17 30 30 52 34 58 38 65 44 73 4 4 7 9 8 11 2 5 15 25 28 46 28 45 38 63 46 84 7 18 9 29 9 52 1 19 0 22-6 41-9 28-22 53-36 71-28 35-69 57-115 62-11 2-34 2-44 0z m51-78c29-5 50-21 62-44 3-6 8-20 7-20 0 0-44-11-45-11 0 0-2 2-2 5-5 15-17 27-33 31-7 2-20 2-28 0-18-5-31-18-37-38-4-12-4-18-4-37 0-19 0-25 4-38 1-7 6-17 10-23 7-7 17-14 27-16 6-2 19-2 26-1 6 2 14 6 19 10 7 7 14 18 17 30 1 4 2 7 2 7 0 0 44-14 45-14 0-1-6-18-9-24-5-11-10-16-18-25-11-11-22-17-39-21-29-8-61-3-83 11-34 21-51 58-49 107 1 37 11 64 31 84 17 17 34 25 59 29 9 1 29 0 38-2z"/>
<glyph glyph-name="d" unicode="&#100;" d="M237 505c-55-7-103-38-129-84-10-18-17-38-21-61-2-11-2-40-1-51 5-29 18-59 54-117 8-12 24-38 35-57 19-32 42-69 72-118l11-17 8 0 7 13c4 7 17 30 30 52 34 58 38 65 44 73 4 4 7 9 8 11 2 5 15 25 28 46 28 45 38 63 46 84 7 18 9 29 9 52 1 19 0 22-6 41-9 28-22 53-36 71-28 35-69 57-115 62-11 2-34 2-44 0z m44-67c29-2 44-8 60-25 15-16 24-36 28-64 2-11 2-39 0-48-3-23-10-41-20-56-5-7-15-17-22-21-7-4-17-8-24-10-13-3-18-3-72-3l-51 0 0 113c0 63 0 114 0 114 1 1 89 1 101 0z m-55-114l0-74 28 0c30 0 33 1 43 6 10 4 15 11 20 23 7 22 8 68 0 88-5 13-11 21-22 26-9 5-19 6-48 6l-21 0z"/>
<glyph glyph-name="e" unicode="&#101;" d="M237 505c-55-7-103-38-129-84-10-18-17-38-21-61-2-11-2-40-1-51 5-29 18-59 54-117 8-12 24-38 35-57 19-32 42-69 72-118l11-17 8 0 7 13c4 7 17 30 30 52 34 58 38 65 44 73 4 4 7 9 8 11 2 5 15 25 28 46 28 45 38 63 46 84 7 18 9 29 9 52 1 19 0 22-6 41-9 28-22 53-36 71-28 35-69 57-115 62-11 2-34 2-44 0z m112-87l0-20-62 0-61 0 0-50 114 0 0-38-114 0 0-62 127 0 0-38-173 0 0 113c0 62 0 114 0 114 0 0 38 0 85 0l84 0z"/>
<glyph glyph-name="f" unicode="&#102;" d="M237 505c-55-7-103-38-129-84-10-18-17-38-21-61-2-11-2-40-1-51 5-29 18-59 54-117 8-12 24-38 35-57 19-32 42-69 72-118l11-17 8 0 7 13c4 7 17 30 30 52 34 58 38 65 44 73 4 4 7 9 8 11 2 5 15 25 28 46 28 45 38 63 46 84 7 18 9 29 9 52 1 19 0 22-6 41-9 28-22 53-36 71-28 35-69 57-115 62-11 2-34 2-44 0z m125-86l0-19-110 0 0-54 95 0 0-19-1-19-47 0-47 0 0-97-47 0 0 228 157 0z"/>
<glyph glyph-name="g" unicode="&#103;" d="M237 505c-55-7-103-38-129-84-10-18-17-38-21-61-2-11-2-40-1-51 5-29 18-59 54-117 8-12 24-38 35-57 19-32 42-69 72-118l11-17 8 0 7 13c4 7 17 30 30 52 34 58 38 65 44 73 4 4 7 9 8 11 2 5 15 25 28 46 28 45 38 63 46 84 7 18 9 29 9 52 1 19 0 22-6 41-9 28-22 53-36 71-28 35-69 57-115 62-11 2-34 2-44 0z m45-65c33-5 56-20 68-45 4-7 8-20 7-21 0 0-43-9-45-9 0 0-1 3-2 5-8 19-23 30-46 31-33 2-57-15-65-46-3-9-3-16-3-30 0-21 2-34 9-48 15-27 47-38 80-27 8 3 16 7 23 11l6 4 0 28-27 0-26 0 0 39 100 0 0-45 0-45-3-3c-16-15-49-29-77-32-9-1-30-1-39 0-29 4-53 17-69 37-25 31-32 83-19 124 13 38 42 64 79 71 10 2 11 2 27 2 9 0 17-1 22-1z"/>
<glyph glyph-name="h" unicode="&#104;" d="M237 505c-55-7-103-38-129-84-10-18-17-38-21-61-2-11-2-40-1-51 5-29 18-59 54-117 8-12 24-38 35-57 19-32 42-69 72-118l11-17 8 0 7 13c4 7 17 30 30 52 34 58 38 65 44 73 4 4 7 9 8 11 2 5 15 25 28 46 28 45 38 63 46 84 7 18 9 29 9 52 1 19 0 22-6 41-9 28-22 53-36 71-28 35-69 57-115 62-11 2-34 2-44 0z m-20-113l0-44 89 0 0 44 0 45 23 0 23 0 0-227-46 0 0 99-89 0 0-99-46 0 0 113c0 62 0 114 0 114 0 0 11 0 23 0l23 0z"/>
<glyph glyph-name="i" unicode="&#105;" d="M237 505c-55-7-103-38-129-84-10-18-17-38-21-61-2-11-2-40-1-51 5-29 18-59 54-117 8-12 24-38 35-57 19-32 42-69 72-118l11-17 8 0 7 13c4 7 17 30 30 52 34 58 38 65 44 73 4 4 7 9 8 11 2 5 15 25 28 46 28 45 38 63 46 84 7 18 9 29 9 52 1 19 0 22-6 41-9 28-22 53-36 71-28 35-69 57-115 62-11 2-34 2-44 0z m42-180l0-114-46 0 0 228 23 0 23-1z"/>
<glyph glyph-name="j" unicode="&#106;" d="M237 505c-55-7-103-38-129-84-10-18-17-38-21-61-2-11-2-40-1-51 5-29 18-59 54-117 8-12 24-38 35-57 19-32 42-69 72-118l11-17 8 0 7 13c4 7 17 30 30 52 34 58 38 65 44 73 4 4 7 9 8 11 2 5 15 25 28 46 28 45 38 63 46 84 7 18 9 29 9 52 1 19 0 22-6 41-9 28-22 53-36 71-28 35-69 57-115 62-11 2-34 2-44 0z m84-148c0-74 0-81-1-90-3-19-8-31-19-42-13-12-28-18-50-19-43-2-68 18-74 56-1 6-2 18-1 18 0 0 10 1 21 3 12 1 22 2 22 2 0 0 0-3 0-6 2-17 6-27 16-31 3-2 5-2 11-2 16-1 23 4 26 18 2 9 3 25 3 99l0 74 23 0 23 0z"/>
<glyph glyph-name="k" unicode="&#107;" d="M237 505c-55-7-103-38-129-84-10-18-17-38-21-61-2-11-2-40-1-51 5-29 18-59 54-117 8-12 24-38 35-57 19-32 42-69 72-118l11-17 8 0 7 13c4 7 17 30 30 52 34 58 38 65 44 73 4 4 7 9 8 11 2 5 15 25 28 46 28 45 38 63 46 84 7 18 9 29 9 52 1 19 0 22-6 41-9 28-22 53-36 71-28 35-69 57-115 62-11 2-34 2-44 0z m-20-118l0-50 93 100 31 0c17 0 30 0 30 0 0-1-19-21-42-45-41-42-43-44-42-45 1-1 21-32 45-69 24-36 43-67 44-67 0-1-6-1-30-1l-30 0-31 53c-17 29-31 52-31 52-1 0-9-8-19-18l-18-19 0-68-46 0 0 113c0 62 0 114 0 114 0 0 11 0 23 0l23 0z"/>
<glyph glyph-name="l" unicode="&#108;" d="M237 505c-55-7-103-38-129-84-10-18-17-38-21-61-2-11-2-40-1-51 5-29 18-59 54-117 8-12 24-38 35-57 19-32 42-69 72-118l11-17 8 0 7 13c4 7 17 30 30 52 34 58 38 65 44 73 4 4 7 9 8 11 2 5 15 25 28 46 28 45 38 63 46 84 7 18 9 29 9 52 1 19 0 22-6 41-9 28-22 53-36 71-28 35-69 57-115 62-11 2-34 2-44 0z m2-163l0-94 114 0 0-38-161 0 0 112c0 62 1 112 1 113 0 0 11 0 23 0l23 0z"/>
<glyph glyph-name="m" unicode="&#109;" d="M237 505c-55-7-103-38-129-84-10-18-17-38-21-61-2-11-2-40-1-51 5-29 18-59 54-117 8-12 24-38 35-57 19-32 42-69 72-118l11-17 8 0 7 13c4 7 17 30 30 52 34 58 38 65 44 73 4 4 7 9 8 11 2 5 15 25 28 46 28 45 38 63 46 84 7 18 9 29 9 52 1 19 0 22-6 41-9 28-22 53-36 71-28 35-69 57-115 62-11 2-34 2-44 0z m-18-70c0 0 10-35 21-76 11-42 20-76 20-76 0 0 9 33 20 74 10 41 19 75 20 77l1 2 34 0 35 0 0-114 0-114-44 0 0 87 0 87-22-87-22-86-45 0-22 87-22 88 0-88 0-88-43 0 0 114c0 62 0 113 1 113 0 1 15 1 34 1 26 0 34 0 34-1z"/>
<glyph glyph-name="n" unicode="&#110;" d="M237 505c-55-7-103-38-129-84-10-18-17-38-21-61-2-11-2-40-1-51 5-29 18-59 54-117 8-12 24-38 35-57 19-32 42-69 72-118l11-17 8 0 7 13c4 7 17 30 30 52 34 58 38 65 44 73 4 4 7 9 8 11 2 5 15 25 28 46 28 45 38 63 46 84 7 18 9 29 9 52 1 19 0 22-6 41-9 28-22 53-36 71-28 35-69 57-115 62-11 2-34 2-44 0z m21-142l46-76 0 76 0 76 22 0 21-1 0-113 0-114-23 0-23 0-45 73-46 74 0-74 0-73-44 0 0 113c0 63 1 114 1 114 0 0 10 1 22 1l23-1z"/>
<glyph glyph-name="o" unicode="&#111;" d="M237 505c-55-7-103-38-129-84-10-18-17-38-21-61-2-11-2-40-1-51 5-29 18-59 54-117 8-12 24-38 35-57 19-32 42-69 72-118l11-17 8 0 7 13c4 7 17 30 30 52 34 58 38 65 44 73 4 4 7 9 8 11 2 5 15 25 28 46 28 45 38 63 46 84 7 18 9 29 9 52 1 19 0 22-6 41-9 28-22 53-36 71-28 35-69 57-115 62-11 2-34 2-44 0z m37-68c13-1 28-5 39-11 18-9 35-25 44-43 8-16 12-34 13-57 1-45-13-81-42-103-36-27-99-27-136-1-7 6-19 18-24 25-14 21-20 47-19 79 1 25 6 44 15 61 7 12 17 24 28 32 20 14 51 21 82 18z m-22-39c-8-1-18-4-25-8-3-2-7-5-11-9-9-10-15-21-18-38-1-10-1-35 0-44 5-25 16-42 35-51 14-6 34-7 49-1 14 5 27 17 33 32 9 22 10 59 1 82-10 26-33 39-64 37z"/>
<glyph glyph-name="p" unicode="&#112;" d="M237 505c-55-7-103-38-129-84-10-18-17-38-21-61-2-11-2-40-1-51 5-29 18-59 54-117 8-12 24-38 35-57 19-32 42-69 72-118l11-17 8 0 7 13c4 7 17 30 30 52 34 58 38 65 44 73 4 4 7 9 8 11 2 5 15 25 28 46 28 45 38 63 46 84 7 18 9 29 9 52 1 19 0 22-6 41-9 28-22 53-36 71-28 35-69 57-115 62-11 2-34 2-44 0z m45-71c22-1 32-2 40-5 19-6 34-23 39-44 3-9 3-26 2-36-4-22-15-38-34-47-3-2-8-4-10-5-11-3-29-5-61-5l-23 0 0-85-45 0 0 227 35 0c19 0 45 0 57 0z m-47-71l0-32 26 1c28 0 32 1 39 5 6 3 12 9 14 14 1 4 1 5 1 13 0 8 0 8-2 13-3 5-7 10-13 13-7 4-11 4-39 5l-26 0z"/>
<glyph glyph-name="q" unicode="&#113;" d="M237 505c-55-7-103-38-129-84-10-18-17-38-21-61-2-11-2-40-1-51 5-29 18-59 54-117 8-12 24-38 35-57 19-32 42-69 72-118l11-17 8 0 7 13c4 7 17 30 30 52 34 58 38 65 44 73 4 4 7 9 8 11 2 5 15 25 28 46 28 45 38 63 46 84 7 18 9 29 9 52 1 19 0 22-6 41-9 28-22 53-36 71-28 35-69 57-115 62-11 2-34 2-44 0z m37-69c27-3 48-12 64-29 18-17 27-38 31-67 1-10 1-34-1-45-3-21-9-38-20-53-3-3-5-6-5-6-1-2-1-2 4-5 7-4 20-11 26-14 3-1 5-2 5-2 0-2-17-32-17-32-2 0-9 3-15 5-2 1-11 7-20 12l-16 11-8-3c-30-10-68-9-96 5-19 9-36 26-45 45-13 27-16 68-8 101 6 23 19 43 37 57 22 16 52 23 84 20z m-22-40c-8 0-18-3-25-7-6-4-16-14-19-20-8-14-12-33-11-55 1-26 6-43 18-56 15-15 37-22 58-16l3 1-2 1c-2 2-15 9-21 11-2 1-5 2-5 2 0 0 3 6 7 13 4 10 6 13 7 13 1 0 5-2 10-4 8-3 22-11 29-16l3-3 4 5c6 9 11 21 13 35 1 7 1 31 0 38-4 25-14 41-30 51-6 3-16 6-22 7-9 1-11 1-17 0z"/>
<glyph glyph-name="r" unicode="&#114;" d="M237 505c-55-7-103-38-129-84-10-18-17-38-21-61-2-11-2-40-1-51 5-29 18-59 54-117 8-12 24-38 35-57 19-32 42-69 72-118l11-17 8 0 7 13c4 7 17 30 30 52 34 58 38 65 44 73 4 4 7 9 8 11 2 5 15 25 28 46 28 45 38 63 46 84 7 18 9 29 9 52 1 19 0 22-6 41-9 28-22 53-36 71-28 35-69 57-115 62-11 2-34 2-44 0z m53-69c25-2 37-7 48-19 13-13 19-33 17-53-4-29-22-47-53-54l-6-1 6-3c12-8 20-17 31-33 6-8 38-59 40-63 1-1 0-1-27-1l-28 0-19 29c-25 37-32 47-38 54-9 9-15 11-35 12l-11 0 0-95-23 0-23 0 0 113c0 62 0 113 0 114 0 1 108 1 121 0z m-75-67l0-28 32 0c35 0 40 1 47 4 4 2 9 8 11 13 3 6 3 17 0 23-2 6-6 10-12 13-5 2-6 3-15 3-5 0-21 1-36 1l-27 0z"/>
<glyph glyph-name="s" unicode="&#115;" d="M237 505c-55-7-103-38-129-84-10-18-17-38-21-61-2-11-2-40-1-51 5-29 18-59 54-117 8-12 24-38 35-57 19-32 42-69 72-118l11-17 8 0 7 13c4 7 17 30 30 52 34 58 38 65 44 73 4 4 7 9 8 11 2 5 15 25 28 46 28 45 38 63 46 84 7 18 9 29 9 52 1 19 0 22-6 41-9 28-22 53-36 71-28 35-69 57-115 62-11 2-34 2-44 0z m47-65c21-4 33-9 45-21 12-12 18-26 19-42l0-5-23-1c-12 0-23-1-23-1 0 1-1 3-2 6-5 19-16 27-40 27-22 0-36-8-38-20-1-7 3-14 10-18 6-3 18-7 39-13 38-9 51-15 64-26 11-11 17-23 19-39 3-23-4-44-20-59-11-10-23-16-42-20-8-1-10-2-28-2-18 0-21 1-28 2-32 7-52 24-62 53-3 9-6 23-4 23 0 0 10 1 21 2 11 2 21 3 22 3 1 0 1-1 2-3 3-14 7-21 14-28 6-6 12-9 21-11 7-2 26-2 32 0 11 3 19 10 23 18 2 4 3 6 3 11 0 6-1 7-2 10-3 5-4 6-9 9-6 3-14 6-38 12-38 10-50 15-63 27-12 12-17 24-18 41-1 12 2 23 8 34 4 5 12 14 17 18 11 7 27 12 45 14 6 1 30 0 36-1z"/>
<glyph glyph-name="t" unicode="&#116;" d="M237 505c-55-7-103-38-129-84-10-18-17-38-21-61-2-11-2-40-1-51 5-29 18-59 54-117 8-12 24-38 35-57 19-32 42-69 72-118l11-17 8 0 7 13c4 7 17 30 30 52 34 58 38 65 44 73 4 4 7 9 8 11 2 5 15 25 28 46 28 45 38 63 46 84 7 18 9 29 9 52 1 19 0 22-6 41-9 28-22 53-36 71-28 35-69 57-115 62-11 2-34 2-44 0z m110-90l0-19-33 0-34 0 0-188-47 0 0 188-33 0-33 0-1 19c0 10 0 19 1 19 0 1 18 1 90 1l90 0z"/>
<glyph glyph-name="u" unicode="&#117;" d="M237 505c-55-7-103-38-129-84-10-18-17-38-21-61-2-11-2-40-1-51 5-29 18-59 54-117 8-12 24-38 35-57 19-32 42-69 72-118l11-17 8 0 7 13c4 7 17 30 30 52 34 58 38 65 44 73 4 4 7 9 8 11 2 5 15 25 28 46 28 45 38 63 46 84 7 18 9 29 9 52 1 19 0 22-6 41-9 28-22 53-36 71-28 35-69 57-115 62-11 2-34 2-44 0z m-24-146c0-56 1-79 1-82 3-13 9-22 20-28 7-3 13-4 25-4 11 0 17 1 23 4 9 4 16 13 17 22 1 3 1 6 2 7 0 1 0 37 1 80l0 78 46 0 0-67c0-87 0-101-6-118-5-16-15-28-31-36-15-8-33-11-58-10-22 1-34 3-46 9-20 10-33 27-37 48-3 16-3 21-3 98-1 41-1 75 0 76 0 0 4 1 23 0l23 0z"/>
<glyph glyph-name="v" unicode="&#118;" d="M237 505c-55-7-103-38-129-84-10-18-17-38-21-61-2-11-2-40-1-51 5-29 18-59 54-117 8-12 24-38 35-57 19-32 42-69 72-118l11-17 8 0 7 13c4 7 17 30 30 52 34 58 38 65 44 73 4 4 7 9 8 11 2 5 15 25 28 46 28 45 38 63 46 84 7 18 9 29 9 52 1 19 0 22-6 41-9 28-22 53-36 71-28 35-69 57-115 62-11 2-34 2-44 0z m-33-75c0-2 13-40 28-84l28-80 3 9c1 5 14 43 27 84l25 75 24 0c21 0 25 0 25-1 0-1-67-188-79-223l-2-4-50 0-1 4c-10 28-80 223-79 223 0 0 11 1 25 1l24 0z"/>
<glyph glyph-name="w" unicode="&#119;" d="M237 505c-37-4-73-21-100-46-6-6-19-21-19-22 0 0 9 0 19 0 18 0 19 0 20-2 0 0 8-35 17-76 9-42 17-76 17-76 0 0 9 34 20 75 11 42 21 76 21 77l1 2 27-1 27 0 20-78c11-43 20-78 20-78 0 1 8 36 17 79l17 77 20 1 20 0-5 7c-28 34-69 56-115 61-11 2-34 2-44 0z m148-164c-12-49-24-98-27-110l-5-22-25 0-24 0-23 84c-12 46-22 83-22 83-1 0-45-166-45-167 0 0-11 0-25 0l-26 0-25 108c-14 59-26 108-26 109 0 1-4-4-9-14-7-14-11-28-15-46-2-8-2-10-3-29 0-23 1-30 5-44 7-26 20-52 50-101 8-12 24-38 35-57 19-32 42-69 72-118l11-17 8 0 7 13c4 7 17 30 30 52 34 58 38 65 44 73 4 4 7 9 8 11 2 5 15 25 28 46 28 45 38 63 46 84 7 18 9 29 9 52 1 19 0 22-6 41-6 18-16 41-23 53l-3 4z"/>
<glyph glyph-name="x" unicode="&#120;" d="M237 505c-55-7-103-38-129-84-10-18-17-38-21-61-2-11-2-40-1-51 5-29 18-59 54-117 8-12 24-38 35-57 19-32 42-69 72-118l11-17 8 0 7 13c4 7 17 30 30 52 34 58 38 65 44 73 4 4 7 9 8 11 2 5 15 25 28 46 28 45 38 63 46 84 7 18 9 29 9 52 1 19 0 22-6 41-9 28-22 53-36 71-28 35-69 57-115 62-11 2-34 2-44 0z m0-104c13-18 23-33 23-33 0 0 11 16 23 34l22 33 26 0c22 0 27 0 27-1 0 0-16-24-35-53-19-30-35-54-35-55 0 0 14-23 38-59 21-32 38-58 39-59 0 0-6 0-28 0l-27 0-25 38c-14 21-25 38-26 38 0 0-11-17-25-38-13-21-25-38-25-38 0 0-13 0-28 0l-27 0 39 59c21 32 39 59 39 59-1 1-16 25-36 54-19 30-35 54-35 54 0 1 10 1 27 1l27 0z"/>
<glyph glyph-name="y" unicode="&#121;" d="M237 505c-55-7-103-38-129-84-10-18-17-38-21-61-2-11-2-40-1-51 5-29 18-59 54-117 8-12 24-38 35-57 19-32 42-69 72-118l11-17 8 0 7 13c4 7 17 30 30 52 34 58 38 65 44 73 4 4 7 9 8 11 2 5 15 25 28 46 28 45 38 63 46 84 7 18 9 29 9 52 1 19 0 22-6 41-9 28-22 53-36 71-28 35-69 57-115 62-11 2-34 2-44 0z m-3-113c14-25 27-45 27-44 0 0 12 20 26 44l26 44 26 0c23 1 27 0 27 0-1-1-19-31-42-67l-41-65 0-95-47 0 0 96-41 65c-23 36-41 65-41 66 0 0 8 1 27 0l26 0z"/>
<glyph glyph-name="z" unicode="&#122;" d="M237 505c-55-7-103-38-129-84-10-18-17-38-21-61-2-11-2-40-1-51 5-29 18-59 54-117 8-12 24-38 35-57 19-32 42-69 72-118l11-17 8 0 7 13c4 7 17 30 30 52 34 58 38 65 44 73 4 4 7 9 8 11 2 5 15 25 28 46 28 45 38 63 46 84 7 18 9 29 9 52 1 19 0 22-6 41-9 28-22 53-36 71-28 35-69 57-115 62-11 2-34 2-44 0z m115-86l0-18-62-77-62-76 64 0 64 0 0-39-185 0 0 21 0 21 60 73 59 73-53 0-52 0 0 40 83-1 83 0z"/>
<glyph glyph-name="dining" unicode="&#65;" d="M454 434c-35-10-51-102-10-115 10-4 9-7 9-21 0-9 0-19 0-29-1-46-5-89-11-133-2-16-10-45 10-56 5-2 7-3 12 0 13 7 17 21 14 41-11 64-15 121-14 187 0 11 7 9 15 14 11 7 17 22 18 40 0 16-3 34-10 48-5 10-17 28-33 24z m-414-135c0-45-2-79-7-125-2-17-5-34-8-51 0-9 0-18 4-26 2-3 10-13 17-12 6 2 13 8 16 14 4 7 6 15 4 25-2 16-5 33-8 51-4 39-7 75-7 115 0 38-2 31 10 37 4 2 7 5 9 8 9 14 5 39 4 57-1 10-2 20-3 30 0 2 0 5-2 5-3 1-4-1-4-4-1-11 1-35 1-48 0-6 2-18-2-21-1-2-4-2-6 0-3 2-1 25-1 31 0 10 0 21 0 32 0 4 1 13-6 10-3-1-1-11-1-15 0-7 0-61-1-64-1-3-8-3-8 4 0 10 0 37 0 48 0 5 0 11 0 16 0 6 2 12-5 11-3-1-1-12-1-18l0-40c0-5 1-15-4-16-8-1-6 8-6 14 0 11 2 54 0 59-7 4-6-5-6-11-1-17-4-46-4-59 0-13 3-23 13-28 11-7 12 1 12-29z m84 88c-1-2-3-4-5-6-3-3-13-15-16-19-6-10-12-19-17-30-28-58-20-133 18-183 3-3 4-5 6-7 4-5 16-18 17-19 1 0 10-8 12-9 4-3 8-7 13-10 29-20 68-30 105-29 27 1 50 8 72 18 10 4 19 11 27 17l16 12c1 1 2 2 3 3l6 5 10 12c41 49 53 125 26 185-7 16-17 35-29 47l-5 6c-2 2-4 4-6 6l-12 11c-60 50-151 54-215 10-5-3-9-6-13-10z m116 8c-20-2-39-7-53-16-8-4-16-8-22-13-3-3-6-5-9-8-2-2-3-3-5-5l-7-8c-36-43-43-104-17-152 9-17 20-32 35-43 2-2 3-3 5-4 49-39 119-38 168 1 13 10 24 22 33 36 15 23 23 53 21 83-2 29-13 54-29 76-2 1-2 3-4 4-1 2-3 3-4 5-11 13-33 27-52 35-18 7-38 10-60 9z m-1-4c-20-3-35-7-52-16-14-7-19-12-29-21-14-12-28-34-34-50-7-18-10-38-8-58 2-30 14-57 32-77 28-32 68-51 113-47 21 2 36 7 52 15 6 3 25 16 29 21 3 3 6 6 9 9 6 8 8 9 14 19 25 40 26 90 4 133-4 7-11 20-17 25-1 1-2 3-4 4l-13 13c-10 8-25 17-37 21-17 6-39 10-59 9z"/>
<glyph glyph-name="drawingroom" unicode="&#66;" d="M162 340c0 0-1 0-3-1l-45 36c-6-5-5-3-8-10 6-7 30-26 38-30-3-7-20-28-27-35-15-19-12-21-20-22-9-2-11 5-11-12l140 0c-8-2-86 0-104 0l-31-1c-4-2-2 0-5-2 8-7 43-4 58-4l-3-229c-11-3-53-1-68-1l0-8c0 0 1 0 1-1 0-1 1-1 2-1 7-2 8-1 18-1l162 0c28 0 167-1 183 1l0 9-44 1c6 6 13 13 18 21 8 14 9 11 18 22-7 23-51 57-54 66-3 7-2 32-2 42 23 11 13 4 35 10l-3 17c15 10 14 27 12 45-1 7 2 14 0 27-6 43-4 80-33 122l-30 32c-1 0-13-1-11 19 2 10 3 16-2 25-4 7-9 10-17 14-9 6-15 3-26 1-20-5-25-14-34-31 1 0 2 0 3-1 0-3 6 1 10-10 9-27-4-15 10-26 1-1 2-3 4-5 4-4 7-7 12-10 7 3 5 4 12 7l5-11c-1-3-3-6-8-8 0-1 1-1 1-2 1-11 0 1 2-4 0 0 5-2-4-15-7-12-18-16-25-32-1-3-2-10-14-17-14-8-36 3-48 9-6 3-13 7-17 11-8 6-9 8-20 11 8 11 14 12 14 21-6-1-4-3-10-7-2-3-7-8-9-10-15-11-11 6-19-20 12-5 10-14 35-13 10 1 7 0 10-1 1-1 7-6 9-8 18-13 27-20 50-25 20-5 45 25 60 32 3-15 0-17-12-24-25-14-36-22-58-16-19 5-16-1-30-4-16 15-61 46-68 56z m214-311c11 1 2-2 11 16 4 10 6 9 6 21-6 3-11 7-17 9z m-71 0l54 0-1 25z m-197 248l104 0c-11 9-20 17-31 26l-32 26z m117-18l-67 0-4-231 128 1c3 5 0 7 14 17 12 9 22 15 16 22-24 34-23 49-39 72-17 25-32 50-40 82 14 15 21 15 43 21 19 5 36 7 55 11 1 2 1 1 2 4 1 1 2 2 2 4 2 4 4 6 4 11-14-9-42-6-62-5-10 0-4-1-12-2-8-2-9 0-16 0-10 0-3 0-10-5-6-3-6-2-14-2z"/>
<glyph glyph-name="spl-fireextinguisher" unicode="&#67;" d="M43 505c-17-5-27-15-35-31-5-11-5-12-5-219 0-208 0-208 5-218 7-14 19-26 34-32 12-4 16-4 214-4 196 0 203 0 214 4 15 6 28 18 35 32 5 10 5 13 5 214 1 234 2 220-19 240-20 20-7 19-236 19-187 0-201-1-212-5z m428-10c12-5 23-19 27-31 5-17 5-400 0-417-4-14-12-24-26-31l-10-5-199-1c-141 0-202 0-211 2-9 2-14 5-23 13-19 17-18 5-18 230 0 216 0 212 13 226 19 21 6 19 237 19 187 0 202-1 210-5z m-274-31c-17-3-26-21-21-38 1-5 3-9 4-9 5 0 2-4-7-9-13-7-35-30-37-38-2-12 1-16 9-16 7 0 9 1 16 11 12 16 24 24 44 30 5 2 5 1 5-9l0-11-13-6c-13-7-23-17-31-32l-5-9 0-134c-1-120-1-134 3-137 3-4 11-4 63-4 47 0 60 1 63 3 4 3 5 8 5 126 1 136 1 146-11 164-7 11-21 22-32 26-5 2-6 3-6 15l0 12 25 0c24 0 25 0 25-5 1-5-1-5 38-11 11-1 32-5 47-7 15-2 28-4 30-4 2 0 2 9 2 40l0 39-11-1c-7-1-17-2-24-4-6-1-27-4-46-7-35-4-36-5-36-10 0-5 0-5-25-5l-25 0 0 9c0 8 0 9-7 9-4 0-7 1-7 3 0 6-12 17-20 19-4 1-11 1-15 0z"/>
<glyph glyph-name="spl-fireexit" unicode="&#68;" d="M415 160l-394 0 0-109 394 0 0-39c6 4 47 56 57 68 5 6 14 18 19 23-2 5-14 18-18 24-16 19-44 56-58 70z m-163-99l27 0 0 88-26 0z m52 65l25 0 0-65 29 0 0 65 23 0 0 23-77 0z m-136-22l-28-41 32 0c4 7 11 17 15 22 19-27 8-22 44-22l-26 41 27 43-26 0c-8-3-13-17-19-23-17 30-15 23-46 23z m-125-43l75 0 0 23-46 0 0 10 40 0 0 23-40 0 0 9 46 0 0 23-74 0z m104 188c-4 3-16 22-26 34-10 11-21 20-30 32-26 40-7 88-7 103-6-7-24-44-29-56-40-111 66-91 82-167 24 10 70 57 78 87 9 40-18 100-34 126-4-7-8-30-8-38 0-16 4-26 10-37 12-21 14-54-1-74-10 41-6 26-20 63-10 29-10 36-2 66 14 46 13 86-33 112-3-37 0-28-18-65-11-20-19-40-11-68 12-39 58-68 49-118z m136 40l3-7 58 33c-1-4-16-39-19-43l-62-65c-6-7-8-10-16-17-4-3-12-12-15-17l50 0c-3 7-10 9-15 16l76 62c3-2 17-13 19-16l-21-28c-4-4-8-8-11-14-4-4-8-9-11-13l43 0c-3 3-5 5-10 7 3 6 35 44 37 46-3 9-22 31-27 40 6 9 13 19 21 26l2-25c15-4 29-16 44-20l7 9c-4 6-8 6-16 12-22 15-16 2-19 66-10 1-29 9-37 7l-78-56c-3-3-2-2-3-3z m120 102c-25-8-15-45 10-38 8 2 15 14 12 24-2 8-11 17-22 14z"/>
<glyph glyph-name="spl-firstaid" unicode="&#69;" d="M183 490c-20-3-41-25-44-45 0-4-1-17-1-29l0-23 40 0 0 8c1 5 1 14 1 20 0 15 1 19 5 23 6 7 6 7 49 7 21 1 50 1 63 0l25-1 4-3c7-6 7-6 8-24 1-9 1-20 1-23l0-7 41 0-1 25c0 16-1 27-2 30-2 10-7 18-15 26-9 9-19 14-29 16-8 1-138 1-145 0z m-139-117c-16-5-30-16-37-31-4-7-4-9-5-18-1-14-1-249 0-257 2-9 7-20 14-28 11-11 20-16 34-17 6-1 90-1 214-1l204 0 5 3c13 4 26 16 32 28 6 12 6 7 6 144 0 78 0 127-1 131-2 13-11 28-23 36-3 2-9 6-13 8l-8 3-209 0c-165 0-209 0-213-1z m234-60c25-5 43-15 61-33 24-23 35-51 35-83 0-54-38-102-91-115-7-2-11-2-27-2-16-1-20 0-27 2-54 14-91 61-91 115 0 33 12 61 36 84 17 17 41 29 63 33 11 2 30 1 41-1z m-42-76l0-19-39 0 0-41 39 0 0-39 40 0 0 39 39 0 0 41-39 0 0 38-40 0z"/>
<glyph glyph-name="hall" unicode="&#70;" d="M101 217c12-19 11-17 11-45 0-51-5-38 22-63 24-23 135-28 173-24 40 5 59 13 93 24l0 18c-25-2-86-7-77 25 6 23 38 16 59 19 10 2 10 6 18 10 1 31-1 25 12 46-10 3-21 10-33 14-83 30-208 24-278-24z m82 66c-6 3-23 19-30 26-32 31-57 8-20-26 38-35 5-30 58-22 22 4 14 2 25 14l4-9c55 3 39 3 95 0l3 11c7-7 6-12 17-15 10-2 19-5 27-4 2 17-18 37-27 48-12 15-20 33-44 35l-13-40c-8 11-7 26-4 40l-14-1c4-12 3-27-2-39l-14 40c-21 0-24-11-34-24-10-12-16-22-27-34z m228-90c11 5 10 13 23 10 0-9-3-8-17-20-7-6-14-13-22-18-17-12-57 5-63-18 7-12 14-10 29-10 10 0 27-1 36 1 13 4 34 29 48 27 1-10 6-5-15-18-8-5-13-7-20-14l-1-35 75 0c0 20 3 100-3 112-7 13-23 15-42 14-21-1-29-9-28-31z m-383-104l62 0c-5 5-2 2-8 7-4 4-5 4-9 8-15 13-28 55-23 63 16-2 14-43 28-55l23-18c33-25 39-1 20 14-8 7-13 11-22 19-10 10-8 13-11 30-3 10-9 26-4 33 9-1 4 3 8-6 2-4 4-29 9-37 1 17 4 50-7 61-8 9-41 11-54 4-16-9-12-34-12-56 0-22 0-45 0-67z m406 229c-56-20-26-98 27-80 51 17 26 98-27 80z m-381-9c-54-18-28-97 26-80 51 15 28 97-26 80z m200 117c-50-21-19-89 27-72 17 6 30 26 23 48-5 18-27 33-50 24z"/>
<glyph glyph-name="kitchen" unicode="&#71;" d="M239 512c-13-1-32-4-44-7-31-7-56-20-72-36-5-6-5-6-12-7-11-2-17-4-26-9-9-4-15-9-19-15-6-7-6-8-6-16-1-7 0-8 2-12 7-13 27-25 51-30 3 0 6-1 6-1 0-1 2-7 7-29 1-7 3-16 4-20 13-57 12-49 12-77l0-24-5-8c-12-19-16-36-17-60-1-16 0-25 4-39 4-16 14-41 23-53l3-5-1 4c-1 8-1 47 0 56 5 52 28 83 64 88l6 1 8-5c14-10 28-17 36-21 3-1 8-3 11-4 6-3 7-4 21-9 17-6 38-11 59-14l13-2 0-2c1-3 4-35 6-67 1-13 1-15 3-12 3 6 9 23 12 35 3 13 5 27 5 42 0 26-5 48-17 73l-4 9 0 43 9 43c6 23 11 46 12 50l1 7 8 2c30 6 51 23 51 40 0 8-3 13-10 21-10 10-23 16-42 20l-7 2-7 6c-4 4-8 8-10 10-2 1-4 2-4 3 0 0-2 1-5 2-29 17-65 26-107 27-10 0-20 0-22 0z m51-17c40-6 71-21 83-39l3-5 10-1c22-3 37-12 42-23 3-5 2-9-1-14-7-10-25-18-43-20-3 0-6-1-7-1-1-1-2-4-3-8-1-5-3-12-4-16-1-4-4-16-7-27-2-10-6-27-8-36l-5-17-187 0-2 10c-2 6-5 21-8 33-8 38-14 60-14 61 0 0-4 0-8 1-20 2-36 8-44 17-3 4-5 10-5 13 3 13 20 23 44 27l9 1 4 5c13 19 44 33 83 39 16 2 18 2 38 2 13 0 22-1 30-2z m59-245l0-19-186 0 0 19 0 18 186 0z m-94 152c-1-1-2-2-2-2-1-1-1-18-1-38 0-40 0-39 4-40 4-1 8 0 10 2 1 2 1 5 1 38 0 42 1 40-7 40-2 0-4 0-5 0z m-71-9c-3-1-4-3-4-6 0-2 4-17 7-35 7-35 7-35 14-35 4 0 7 2 7 4 0 1-1 7-2 14-1 7-3 15-4 18-2 13-7 35-7 36-2 4-7 5-11 4z m148-1c-2-2-2-2-4-12-1-4-3-12-4-19-7-30-8-39-8-40 1-3 8-5 12-3 2 1 3 3 5 14 1 4 4 17 6 30 3 14 5 25 5 27 0 4-8 6-12 3z m-116-196c-5-1-15-4-20-7-18-9-30-31-35-60-2-11-2-49-1-60 2-14 5-27 5-29 1-2 3-3 12-11 23-19 49-28 81-28 15 0 24 1 39 6 25 8 48 25 63 46 5 8 5 5 2 33-1 10-2 25-3 33-2 26-2 27-2 27-3 0-28 4-36 6-36 8-72 24-100 42-2 1-4 2-5 2z m4-64c7-4 10-14 7-20-3-7-9-11-15-11-13 0-21 12-16 23 5 9 15 12 24 8z m88 0c7-4 10-13 7-21-7-16-31-12-32 5-1 13 13 22 25 16z m-78-60c9-6 16-7 27-7 11 0 18 1 29 7 7 3 8 4 11 3 4-1 6-5 6-9 0-3-3-8-5-8 0 0-2 0-3-2-5-2-14-6-22-8-6-1-9-1-18-1-5 0-12 1-15 2-9 2-18 7-25 12-5 3-4 9 1 12 4 3 6 3 14-1z"/>
<glyph glyph-name="spl-restroom-female" unicode="&#72;" d="M214 309c2-8-35-108-37-120l40 0c0-39-1-82 0-121 0-12 6-20 19-20 13 1 17 10 17 23 0 24-2 90 0 110 0 6 0 6 3 7 3-5 1-97 1-115 0-34 35-31 35-3 1 38 0 79 0 119l40 0-25 90c-1 6-9 27-6 31 2-1 1 0 2-2l10-32c4-12 8-26 13-36 10-20 25-10 26-1 3 14-14 59-20 74-3 12-7 26-11 37-6 13-8 23-19 28-8 2-37 1-47 1-14 0-32 2-44-4-12-7-14-15-18-30-8-23-16-47-24-71-3-8-12-28-9-38 1-6 7-10 14-7 14 4 26 48 32 65 1 5 3 15 8 15z m37 154c-17-6-37-24-31-48 5-17 25-35 48-29 17 5 36 24 30 47-5 16-25 37-47 30z m-160 28l330 0c25 0 46-20 46-46l0-378c0-26-21-46-46-46l-330 0c-26 0-46 20-46 46l0 378c0 26 20 46 46 46z"/>
<glyph glyph-name="spl-restroom-male" unicode="&#73;" d="M257 187c5-4 2-44 2-53 0-20 0-38 0-57 0-12 1-23 14-28 5-1 9-2 13 0 16 6 14 22 14 42l0 218c1 5 0 3 3 4 6-14-10-97 20-83 8 4 9 17 9 27 0 11 2 98 0 105-3 8-10 15-20 17-13 3-53 0-69 0-29 0-48 6-60-12-6-10-3-51-3-66 0-15-3-58 3-68 5-7 19-7 22 1 5 11 1 70 2 76 2 3 3 5 5 1 1-3 1-199 1-231 0-12-1-22 7-28 7-5 22-4 29 2 7 7 5 17 5 29l0 72c0 8-3 28 3 32z m-8 277c-18-3-37-23-34-45 2-18 23-37 46-33 18 4 37 23 32 45-4 17-23 37-44 33z m-158 27l330 0c25 0 46-20 46-46l0-378c0-26-21-46-46-46l-330 0c-26 0-46 20-46 46l0 378c0 26 20 46 46 46z"/>
<glyph glyph-name="spl-safespot" unicode="&#74;" d="M30 31l144 0 0 55-89 0 0 89-55 0z m0 307l55 0 0 86 89 0 0 58-144 0z m304 135c0-63-17-49 89-49l0-86 58 0 0 135c0 7-1 9-9 9l-129 0c-7 0-9-2-9-9z m-215-206c0-45 5-74 39-108 63-64 179-53 222 44 5 11 13 38 12 54-3 54-31 99-80 122-50 24-112 14-149-24-13-13-19-18-29-36-7-14-15-30-15-52z m137 80c27 0 49-22 49-49 0-27-22-49-49-49-27 0-50 22-50 49 0 27 23 49 50 49z m20-94c-6-3-13-4-20-4-7 0-14 1-20 4l0 1 40 0z m-40 1l40 0 0-87-40 0z m187-168l-89 0 0-55 147 0 0 144-58 0z"/>
<glyph glyph-name="seat" unicode="&#75;" d="M154 183l0 84z m0 84l0 30c0 0-4 44-50 44-44 0-57-32-56-47 0-15 0-168 0-168 0 0-1-39 47-40 25 0 60-1 90-2 29 0 61 0 61 0l0 99-92 0z m204 29c0 0 4 43 49 43 45 0 58-32 57-47-1-14 0-168 0-168 0 0 1-39-48-40-48 0-179 0-179 0l0 99 121-1z m-121-212l9 0 0 99-9 0z m-82 399l204 0c32 0 59-27 59-59l0-100-322 0 0 100c0 32 27 59 59 59z m-12-159c-8 9-19 17-39 17-2 0-5 0-8 0l0-17z m275 15l0-15-47 0c7 8 18 15 36 15 4 0 8 0 11 0z m-301-236l23 0c10 0 17-7 17-16l0-40c0-9-7-17-17-17l-23 0c-8 0-16 8-16 17l0 40c0 9 8 16 16 16z m-16-17c16 0 36-1 56-1l0 2c0 9-7 16-17 16l-23 0c-8 0-16-7-16-16z m271 17l23 0c8 0 16-8 16-17l0-40c0-9-8-16-16-16l-23 0c-10 0-17 7-17 16l0 40c0 9 7 17 17 17z m0 0l23 0c8 0 16-8 16-17l0-2c-15 0-35 0-56 0l0 2c0 9 7 17 17 17z m-218 192l204 0 0-32-204 0z"/>
<glyph glyph-name="storeroom" unicode="&#76;" d="M29 32l0-8 26 0 0 8-8 0 1 21 2 0 0 12 196 0 0-12 2 0 1-22-9 0 0-7 26 0 0 7-8 0 0 22 3 0 0 12 202 0-1-12 3 0 0-21c0 0 0 0-1 0 0-1-2-1-3-1-1 0-2 0-4 0l0-7 26 0 0 8-8 0 0 21c2 0 2 0 2 1l0 366-15 0 0-11-12 0 0 80-85 0 0-80-5 0 0 80-84 0 0-80-15 0 0 11-15 0 0-11-7 0 0 80-85 0 0-80-5 0 0 80-85 0 0-80-14 0 0 11-15 0c0-62 0-122 0-184l0-137c0-15 0-31 0-46l1 0c0 0 1 0 1 0l0-21z m59 208c1-1 1-1 3-1 1 0 0 2 3 0 2 0 0 0 2 1 1 0 1-1 3-1 2 0 2 1 3 1 2-1 1-1 3-1 2 2 1 1 3 0 1 0 2 0 3 1l0 22-23 0z m300 0c5-3 3 1 6-1 3 0 1 0 3 1 1 0 1-1 3-1 1 0 1 1 3 1 2-1 1-1 2-1 3 2 2 1 3 0 2 0 2 0 3 1l0 22-23 0z m-89 0l2-1c1 0 1 1 3 1 2-1 1-1 3-1 2 2 1 1 3 0 1 0 1 0 2 1 1 0 3-1 3-1 1 0 1 1 2 1 2 0 2-1 2-1 2 0 2 0 3 1l0 22-23 0z m-122 0c2-1 2-1 3-1 2 1 0 2 3 0 2 0 0 0 3 1 2 1 1-1 3-1 1 0 1 1 2 1 2-1 1-1 3-1 3 1 1 1 3 0 2 0 2 0 3 1 0 6 1 16 0 22l-23 0z m238-47l11 0 1 10-12 0z m-315 0l11 0 0 10-11 0z m-15 0l11 0 0 10-11 0z m90 0l11 0 0 10-11 0z m15 0l10 0 0 10-10 0z m211 0l10 0 0 10-10 0z m-286 0l11 0 0 10-11 0z m181 0l11 0 0 10-11 0z m90 0l11 0 0 10-11 0z m-182 0l11 0 1 10-12 0z m107 0l11 0 0 10-11 0z m15 9l0-9 11 0 0 10-11 0z m-27 258c3-3 3 0 5-1 2 0 1-1 2 0 3 1 1 1 3 0 2-1 1-1 3 0 2 1 0 0 3 0 1-1 0 0 2 0 2 1 2 0 3-1l2 2 0 21-23 0z m89 0c2-2 2-2 3-1 3 1 2 0 4-1 4 2 2 2 5 0 5 3 2 0 5 0 1 0 1 1 2 1 1 1 1 0 2-1l2 2 0 21-23 0z m-298-2c1 0 1 1 2 1 2 1 1-1 2-1 1 0 2 1 3 1 0 1 1 0 2-1 3 1 1 3 5 0 2 1 1 2 3 1 3-1 2-1 4 1l0 21-23 0c0-4 0-14 0-18 0-3 0-3 2-5z m87 2c3-3 3 1 6-1 2-2 0-1 3 0 1 1 1-1 3-1 1 0 1 2 3 1 1-1 0-2 3 0 3 2 1-2 5 1l0 21c-2 0-21 0-23 0z m-92-48l11 0 0 11-11 0z m15 0l11 0 0 11-11 0z m75 0l11 0 0 11-11 0z m240 0l12 0 0 11-12 0z m-225 0l10 0 0 11-10 0z m-75 0l11 0 0 11-11 0z m211 0l11 0 0 11-11 0z m75 0l10 0 0 11-10 0z m-15 0l11 0 0 11-11 0z m-90 0l11 0 0 11-11 0z m-92 0l11 0 1 11-12 0z m107 0l11 0 0 11-11 0z m90-109l10 0 0 11-10 0z m-316 0l11 0 0 11-11 0z m211 0l11 0 0 11-11 0z m-106 0l10 0 0 11-10 0z m-75 0l11 0 0 11-11 0z m211 0l11 0 0 11-11 0z m-226 0l11 0 0 11-11 0z m315 0l11 0 1 2 0 9-12 0z m-240 8l0-8 11 0 0 11-11 0z m211-8l11 0 0 11-11 0z m-182 0l12 0 0 11-12 0z m107 0l11 0 0 11-11 0z m-12 48c2-2 2-2 3-1 4 2 2-2 5 0 3 2 2-1 4 0 1 0 1 1 2 1 1 0 1-1 2-2 1 1 1 1 3 2 2-2 2-2 4 0l0 21-23 0z m89 0c3-2 2-2 5 0 1 0 2-1 2-1 1-1 1 1 3 1 1 0 0-1 2-1 1-1 1 1 2 1 2 0 1-1 3-1 0-1 1 1 2 1 3 0 0-3 4 0l0 21-23 0z m-211 0c6-3 2 1 6-1 2-1 1 0 3 1 1 0 2-2 3-1 1 0 1 1 3 0 2-1 1-1 3 0 3 2 2-2 5 1l0 21-23 0z m-89 20l0-20c3-3 2-1 4 0 1 0 1-1 2-1 2-1 1 0 3 1 1 0 1-1 2-1 1-1 2 0 2 1 2 0 2-1 3-2 1 0 1 1 3 2 2-2 0-2 4 0l0 21-23 0z m173-72l15 0 0 81 66 0 0-81 3 0 0 81c1 0 13 0 15 0l0-81 5 0 0 81 66 0 0-81 3 0 0 81 16 0 0-81 12 0 0 95-201 0z m-211 89l0-89 14 0 0 81 66 0 0-81 4 0c0 4 0 20 0 26l0 55 15 0 0-81 5 0 0 81 66 0 0-81 3 0 0 81 16 0 0-81 7 0c0 5 0 78 0 80l0 15-196 0z m211-183l0-15 15 0c0 4 0 26 0 30l0 49 66 0c0-10 0-24 0-35l0-41c0-1 0-2 0-2l0-1 3 0 0 79 15 0 0-79 5 0c0 4 0 10 0 14l0 65c12 1 27 0 40 0l26 0 0-79 3 0c0 3 0 66 0 79l16 0 0-39c0-10-1-31 0-40l12 0c1 30 1 64 0 95l-201 0z m-211 77l0-92 14 0c1 7 0 26 0 33l0 46 66 0 0-79 4 0 0 79 15 0 0-79 5 0c0 7 0 22 0 30l0 49c22 0 45 0 66 0l0-79 3 0c0 20 0 40 0 60 0 3 0 7 0 10l0 9 16 0c0-25 0-52 0-78l0-1 7 0 0 95c-65 0-132 0-196 0z m34-199l11 0 0 11-11 0z m15 0l11 0 0 11-11 0z m15 0l10 0 0 11-10 0z m59 0l11 0 0 11-11 0z m15 0l11 0 1 11-12 0z m15 0l11 0 0 11-11 0z m-27 47c4-2 2 1 5 0 3-1 1 0 3 0 3 1 2 0 3 0 2 0 2 1 3 0 2 0 1-1 3 0 3 1 1 0 4 0 0-1 1 0 3 0l0 23-24 0z m-89 0l2 0c1 0 2 0 2 0 2 0 1-1 3 0 1 0 0 1 3 0 1 0 0-1 2 0 2 1 1 0 3 0 2-1 1 0 2 0 3 1 1-2 6 0l0 22-23 1z m118 30c1 4-1 7 1 10 1 0 9 1 11 0 1-2 0-6 0-10l2 0c0 0 0 0 0 0 0-10-1-77 1-79l2-1 0 80 15 0 0-79 9-1 0 95-196 0 0-95 14 0 0 80 65 0 1-79 2 0 0 79 16 0 0-79 5-1 0 80z m182-29c4-4 3 1 6-1 2-1 1 0 2 0 3 1 3 0 3 0 2 0 2 1 3 0 3 0 1-1 4 0 3 2 1-2 6 0l0 22-24 1z m-2-48l10 0 1 11-11 0z m14 0l11 0 1 11-12 0z m16 0l10 0 0 11-10 0z m-119 0l10 0 0 11-10 0z m14 0l11 0 0 11-11 0z m15 0l10 0 0 11-10 0z m-27 47c3-1 1-1 4 0 2 1 1-1 4 0 3 1 2-1 4 0 3 1-1 1 4 0 2 0 1 1 4 0 1-1 1 0 3 0l0 23-23 0z m-37-49l14-1 0 80 66 0 0-80 2 0 1 80 15 0 0-80 5 1 0 79 66 0 0-80 3 1 0 79 15 0 0-79 14-1 0 95-201 0z"/>
<glyph glyph-name="staircase" unicode="&#77;" d="M93 310c0-6 0-10 4-15 8-9 24-9 32 5 3 6 6 13 10 20 3 6 18 36 19 40l45 0c-6-12-16-34-22-43-4-6-21-38-21-44 0-11 9-15 17-19 20-10 44-24 63-34 3-1 6-3 9-4l23-13c3-2 6-3 9-4 0-16 0-32 0-49 0-10-2-16 2-22 11-17 36-7 36 9l0 72c0 14-17 21-30 29l-36 23 20 42c4 6 12 19 13 26 6-4 47-47 51-50 11-8 20-2 37 3 11 4 57 17 63 24 13 13 0 31-11 31-20 0-61-21-72-21l-42 41c-6 5-9 10-16 13-2-1-2-2-4-4-7-5-9-8-13-12-6-6-14-13-19-16l4 34c1 4 1 9 1 12-6 4-28 13-33 13l-88 0c-10 0-15-11-17-17-6-12-34-65-34-70z m322-134l0-32-64 0c-9 0-14-5-14-14l0-30-63 0c-5 0-11-6-11-12l0-29c0-8 6-13 13-13l203 0c7 0 13 5 13 11l0 121c0 5-6 11-11 11l-56 0c-5 0-10-6-10-13z m-395 71c0-12 8-13 18-18l43-24c24-12 28-19 41 8 2 3 3 5 5 7 3 6 15 26 15 33 0 3-2 7-5 10l-66 34c-6 4-12 9-20 5-6-3-17-27-21-35-2-4-10-16-10-20z m96-136c0-10 2-18 14-22 9-2 16 3 20 8l47 46c8 9 7 13 7 24 0 20 0 41 0 62-4 1-25 10-31 13-4 2-6 4-6-3 0-9 1-70-2-74l-37-37c-4-4-12-11-12-17z m140 314c0-10 3-15 7-22 3-5 10-12 16-15 16-7 34-4 46 7 18 16 16 47 0 60-5 4-6 5-12 8-29 12-57-12-57-38z"/>
<glyph glyph-name="waitingroom" unicode="&#78;" d="M162 342c0-15 7-35 10-50 5-29 11-68 19-95 1-3 2-4 2-7 1-1 2-2 3-3 8-17 20-17 30-20 4-2-1-2 3-2l112 0 0-120c0-33 54-40 54 6l0 143c0 23-5 28-14 36-3 3-4 3-7 4-6 4-8 4-18 4-28 0-54 1-82 1-4 14-11 63-15 73l-7 37c-11 52-71 44-85 12-3-5-5-13-5-19z m-45-35c0-5 1-11 2-15l8-39c1-6 1-4 2-8 12-49 6-91 58-121 10-6 25-10 38-10l78 0c19 0 30 22 14 37-6 6-5 6-17 6-21 0-74-2-90 5-20 9-27 24-31 45l-3 14c-3 13-16 89-22 98-7 15-37 13-37-12z m34 137c0-15 6-27 14-35 13-14 23-15 41-15 7 0 15 2 19 4 6 3 10 7 14 11 14 13 17 38 9 55-1 3-2 6-4 8-15 21-43 27-63 18-6-3-11-6-15-10-9-9-15-23-15-36z"/>
<glyph glyph-name="phone" unicode="&#79;" d="M42 501c-9-6-22-20-29-33l-13-22 0-374 13-22c8-14 22-28 36-36l22-13 369 0 22 13c14 8 28 22 36 36l13 22 0 374-13 23c-7 12-21 26-30 32-17 10-24 11-213 11-190 0-196-1-213-11z m152-107c12-7 33-45 33-57 0-9-7-21-18-31-10-10-18-23-18-29 0-27 62-95 87-95 6 0 20 7 30 15 13 12 21 15 29 13 16-5 43-27 54-42 8-14 8-14-14-33-32-29-71-33-117-12-30 14-101 87-118 122-27 55-23 102 11 135 18 18 30 22 41 14z"/>
<glyph glyph-name="plus" unicode="&#80;" d="M50 499c-13-7-28-23-35-35l-13-22 0-377 13-22c7-12 20-27 30-32 16-10 24-11 210-11 187 0 195 1 211 11 10 5 23 20 30 32l13 22 0 377-13 22c-8 13-22 28-35 35l-22 13-368 0z m243-154l1-58 58-1 57-2 0-66-57-2-58-1-3-115-66 0-2 57-1 58-58 1-57 2 0 66 58 2 57 1 0 56c0 30 2 56 4 58 2 2 17 3 35 2l30-1z"/>
<glyph glyph-name="sign-in" unicode="&#81;" d="M59 504c-23-12-44-33-52-52-9-21-10-366-1-389 7-19 34-47 54-56 23-10 368-10 392 0 23 9 54 45 57 66 2 9 3 97 2 197-2 202 0 189-42 224l-19 15-188 2c-163 1-190 0-203-7z m335-149c21-15 26-37 26-112 0-106-9-120-80-120-33 0-43 1-45 8-2 6 4 7 40 7 65 0 64-1 64 105 0 105 0 105-65 105-35 0-41 1-39 8 5 11 82 11 99-1z m-104-55l60-57-61-57c-34-32-64-58-67-58-4 0-7 12-8 35l-2 34-52 2-52 1 0 86 52 2 52 1 2 35c1 27 3 35 9 33 3-1 34-26 67-57z"/>
<glyph glyph-name="sign-out" unicode="&#82;" d="M48 499c-13-7-28-23-35-35l-13-22 0-367 13-22c7-13 22-27 35-35l22-13 367 0 22 13c13 8 27 22 35 35l13 22 0 367-13 22c-8 13-22 28-35 35l-22 13-368 0z m176-111c-1-11-4-12-45-13-36-1-45-4-55-13-11-10-11-13-11-101 0-87 0-91 11-101 10-9 19-12 55-13 41-1 44-2 45-12 2-12 1-12-44-12-39 0-48 1-63 12-25 17-29 35-29 126 0 91 4 110 29 127 15 10 24 11 63 11 45 0 46 0 44-11z m145-63l64-64-64-64c-36-35-68-64-73-64-7 0-9 6-10 37l-2 37-55 2-55 1 0 102 55 1 55 2 2 37c1 31 3 37 10 37 5 0 37-29 73-64z"/>
<glyph glyph-name="cancel" unicode="&#83;" d="M48 499c-13-7-28-23-35-35l-13-22 0-372 13-22c7-13 22-28 35-35l22-13 367 0 22 13c13 7 27 22 35 35l13 22 0 372-13 22c-8 13-22 28-35 35l-22 13-368 0z m157-159l54-53 53 53c34 34 58 54 65 54 5 0 16-5 22-13l13-13-118-117 54-53 53-54-14-18c-8-10-16-18-18-18-1 0-26 23-54 51-28 28-53 51-56 51-3 0-29-24-58-52l-53-53-17 18-18 17 54 56 56 55-56 55-54 55 16 17c9 9 18 16 19 16 2 0 27-24 57-54z"/>
<glyph glyph-name="extend" unicode="&#84;" d="M42 499c-11-7-26-20-31-30-10-16-11-24-11-213 0-190 1-197 11-213 5-10 20-23 32-30l22-13 377 0 22 13c13 7 28 22 35 35l13 22 0 372-13 22c-7 13-22 28-35 35l-22 13-378 0z m146-93c-10-11-19-22-19-25 0-3 19-24 43-48l44-44 44 44c24 24 43 45 43 47 0 2-8 11-18 20-10 9-18 18-18 20 0 3 25 5 56 5l56 0 2-58c1-64 0-66-26-37-7 7-16 13-19 13-6 0-84-79-84-86 0-2 19-23 43-47l44-43 19 19c11 10 21 19 22 19 1 0 2-27 2-59l0-59-57 0c-32 0-58 2-58 4 0 2 9 12 19 23l19 19-44 45-45 45-45-45-44-45 19-19c10-11 19-21 19-23 0-2-25-4-57-4l-56 0 0 120 41-40 44 43c24 24 43 44 43 47 0 5-84 86-90 86-4 0-12-7-19-15-7-9-14-16-16-16-1 0-3 26-3 57l0 56 115 0z"/>
<glyph glyph-name="registered" unicode="&#85;" d="M48 499c-13-7-28-23-35-35l-13-22 0-372 13-22c7-13 22-28 35-35l22-13 367 0 22 13c13 7 27 22 35 35l13 22 0 372-13 22c-8 13-22 28-35 35l-22 13-368 0z m276-64c31-12 70-41 87-65 28-40 36-67 36-117 1-44 0-49-18-85-85-172-338-134-367 55-23 146 122 264 262 212z m-125-22c-68-25-107-78-111-150-3-55 7-85 41-122 37-41 72-57 124-57 71 1 122 33 153 94 14 30 16 39 16 75 0 34-3 47-13 70-16 33-49 67-81 83-28 14-100 18-129 7z m111-71c30-14 36-53 13-77-18-17-19-19-9-19 12 0 15-9 19-47l3-35-17 0c-16 0-16 0-19 30-3 15-5 31-6 34-2 7-26 13-54 13l-20 0 0-77-33 0 0 184 55 0c31 0 60-2 68-6z m-90-50l0-31 27 0c37 0 52 9 54 31 3 23-9 31-49 31l-32 0z"/>
<glyph glyph-name="marker-black" unicode="&#86;" d="M237 505c-55-7-103-38-129-84-10-18-17-38-21-61-2-11-2-40-1-51 5-29 18-59 54-117 8-12 24-38 35-57 19-32 42-69 72-118l11-17 8 0 7 13c4 7 17 30 30 52 34 58 38 65 44 73 4 4 7 9 8 11 2 5 15 25 28 46 28 45 38 63 46 84 7 18 9 29 9 52 1 19 0 22-6 41-9 28-22 53-36 71-28 35-69 57-115 62-11 2-34 2-44 0z"/>
<glyph glyph-name="envelope" unicode="&#87;" d="M48 494c-13-8-28-23-35-35l-13-22 0-372 13-22c7-12 20-27 30-32 16-10 24-11 210-11 187 0 194 1 211 11 10 5 23 20 30 32l13 22 0 372-13 22c-8 13-22 27-35 35l-22 13-368 0z m354-147c-73-53-133-91-143-91-7 0-28 11-47 24-54 36-120 84-120 87 0 1 76 2 170 2l170 0z m43-114l0-100-185 1-186 2 2 94c1 53 3 96 3 97 1 1 37-22 79-51 43-28 83-53 90-55 16-7 39 4 123 63 40 27 72 49 73 49 1 0 1-45 1-100z"/>
</font>
</defs>
</svg>
